<svg xmlns="http://www.w3.org/2000/svg" xmlns:xlink="http://www.w3.org/1999/xlink" preserveAspectRatio="xMidYMid" width="94.469" height="37" viewBox="0 0 94.469 37">
  <defs>
    <style>
      .cls-1 {
        fill: #808080;
        fill-rule: evenodd;
      }
    </style>
  </defs>
  <path d="M93.251,20.023 C93.244,20.027 93.240,20.034 93.233,20.038 C93.215,20.049 93.193,20.062 93.175,20.073 L92.906,20.250 L92.901,20.236 C91.219,21.240 88.999,22.780 86.983,24.462 C86.756,26.483 86.433,28.734 85.987,30.526 C85.179,33.768 82.669,37.010 79.619,37.010 C77.520,37.010 76.926,35.103 77.306,33.577 C78.171,30.107 81.470,26.560 84.668,23.737 C84.846,21.754 84.982,19.618 85.072,17.826 C83.247,20.381 81.020,22.898 78.050,22.898 C74.565,22.898 73.458,20.305 74.237,17.177 C74.532,15.995 74.878,15.080 75.585,13.516 C75.837,12.982 76.407,12.600 76.961,12.600 C77.674,12.600 78.007,13.172 77.865,13.745 C77.845,13.821 77.787,13.897 77.768,13.973 C77.081,15.461 76.889,16.071 76.613,17.177 C76.062,19.389 76.561,20.610 78.620,20.610 C80.957,20.610 84.234,16.262 85.314,12.562 C85.496,11.990 86.104,11.456 86.777,11.456 C87.332,11.456 87.712,11.838 87.698,12.372 C87.630,14.393 87.538,17.940 87.260,21.601 C89.116,20.190 90.886,18.970 92.362,18.131 C92.515,18.032 92.673,17.990 92.830,17.967 L93.562,17.625 L94.469,19.219 L93.251,20.023 ZM79.682,33.577 C79.492,34.340 79.912,34.721 80.189,34.721 C81.100,34.721 82.898,33.387 83.611,30.526 C83.877,29.458 84.111,28.200 84.285,26.865 C81.924,29.191 80.176,31.594 79.682,33.577 ZM71.000,15.690 C70.705,15.919 70.400,16.033 70.083,16.033 C69.449,16.033 69.028,15.499 69.180,14.889 C69.256,14.584 69.441,14.317 69.736,14.088 C73.419,11.227 75.227,8.100 75.912,5.354 C76.434,3.256 75.563,2.303 75.088,2.303 C74.295,2.303 73.627,2.760 72.369,4.629 C71.034,6.651 69.414,10.770 68.293,15.270 C67.713,17.597 67.203,19.961 66.792,22.250 C68.795,21.678 70.852,21.373 72.317,21.373 C72.393,21.373 72.465,21.381 72.534,21.396 L73.156,21.156 L73.531,23.469 L72.104,23.603 C71.985,23.637 71.865,23.661 71.747,23.661 C70.440,23.661 68.306,24.119 66.382,24.691 C65.565,29.878 65.234,34.226 65.543,35.370 C65.584,35.522 65.576,35.713 65.538,35.866 C65.396,36.438 64.778,37.010 64.065,37.010 C63.629,37.010 63.260,36.743 63.157,36.361 C62.704,34.683 63.017,30.564 63.817,25.606 C63.236,25.873 63.004,23.623 64.236,23.127 C64.715,20.572 65.261,17.902 65.917,15.270 C67.076,10.617 68.655,6.346 70.361,3.790 C71.637,1.845 73.281,0.014 75.658,0.014 C78.351,0.014 78.905,2.875 78.288,5.354 C77.451,8.710 75.174,12.448 71.000,15.690 ZM61.747,8.787 C61.074,8.787 60.682,8.291 60.844,7.642 C61.034,6.879 61.620,6.117 62.412,6.117 C63.085,6.117 63.477,6.613 63.315,7.261 C63.125,8.024 62.539,8.787 61.747,8.787 ZM61.589,12.600 C61.503,12.944 59.989,15.842 59.181,19.084 C58.735,20.877 59.190,21.754 60.100,21.754 C61.209,21.754 61.621,21.373 62.176,21.373 C62.770,21.373 63.250,21.830 63.079,22.517 C62.965,22.974 62.583,23.394 62.100,23.585 C61.922,23.661 60.798,24.042 59.530,24.042 C57.572,24.042 56.801,22.830 56.631,21.429 C56.500,21.628 56.333,21.810 56.089,21.945 C53.195,23.547 51.130,24.042 48.952,24.042 C47.234,24.042 45.933,23.393 45.207,22.319 C45.039,22.515 44.825,22.682 44.589,22.784 C42.243,23.775 40.711,24.042 39.008,24.042 C35.206,24.042 33.384,21.182 34.287,17.559 C35.085,14.355 38.223,11.456 41.748,11.456 C43.965,11.456 45.290,13.134 44.758,15.270 C44.045,18.131 40.853,20.610 37.991,21.449 C38.419,21.640 38.945,21.754 39.578,21.754 C41.044,21.754 41.983,21.640 44.072,20.724 C44.243,20.651 44.440,20.615 44.596,20.612 C44.529,20.026 44.568,19.386 44.738,18.703 C45.641,15.080 49.712,11.456 53.672,11.456 C54.820,11.456 56.783,11.685 56.460,12.982 C56.289,13.668 55.581,14.126 54.987,14.126 C54.829,14.126 54.640,14.088 54.501,14.012 C54.122,13.783 53.815,13.745 53.102,13.745 C50.726,13.745 47.732,16.224 47.114,18.703 C46.649,20.572 47.582,21.754 49.522,21.754 C51.305,21.754 52.599,21.487 55.217,20.038 C55.444,19.923 55.700,19.847 55.938,19.847 C56.211,19.847 56.454,19.955 56.626,20.131 C56.662,19.769 56.723,19.414 56.805,19.084 C57.622,15.804 59.309,12.372 59.319,12.333 C59.570,11.800 60.131,11.456 60.686,11.456 C61.399,11.456 61.731,12.028 61.589,12.600 ZM42.382,15.270 C42.610,14.355 42.128,13.745 41.178,13.745 C39.158,13.745 37.195,15.423 36.663,17.559 C36.483,18.283 36.440,18.932 36.545,19.466 C38.723,19.466 41.907,17.177 42.382,15.270 ZM26.250,24.042 C25.101,24.042 24.366,23.813 23.878,23.547 C23.530,23.356 23.357,22.936 23.461,22.517 C23.632,21.830 24.340,21.373 24.935,21.373 C25.093,21.373 25.281,21.411 25.421,21.487 C25.630,21.601 25.988,21.754 26.820,21.754 C28.641,21.754 30.444,19.923 31.033,17.559 C31.603,15.270 30.756,13.745 28.815,13.745 C26.619,13.745 21.953,18.550 16.432,35.942 C16.240,36.552 15.572,37.010 14.978,37.010 C14.265,37.010 13.951,36.361 14.075,35.866 C16.925,24.424 17.826,18.741 17.332,16.910 C17.291,16.758 17.299,16.567 17.337,16.414 C17.479,15.842 18.097,15.270 18.810,15.270 C19.245,15.270 19.614,15.537 19.717,15.919 C20.088,17.292 19.884,19.101 19.763,21.155 C22.375,15.679 25.504,11.456 29.385,11.456 C32.989,11.456 34.169,14.507 33.409,17.559 C32.668,20.533 29.972,24.042 26.250,24.042 ZM14.833,11.151 C14.815,11.159 14.794,11.161 14.776,11.168 L13.754,9.465 C13.872,9.346 14.001,9.240 14.139,9.168 C14.365,9.053 15.566,8.367 15.842,7.261 C16.127,6.117 15.445,5.354 13.940,5.354 C11.129,5.354 6.562,7.947 6.068,9.931 C5.745,11.227 7.255,12.639 10.603,13.821 C13.594,14.851 17.258,15.881 16.460,19.084 C16.052,20.724 14.449,21.754 12.980,22.402 C9.974,23.711 5.578,24.028 1.225,24.040 L1.219,24.062 L-0.000,24.062 L0.062,21.750 L1.834,21.750 C6.017,21.729 10.259,21.274 12.464,20.343 C13.657,19.847 14.018,19.351 14.084,19.084 C14.331,18.093 12.926,17.215 9.359,15.957 C6.149,14.851 2.874,13.211 3.692,9.931 C4.718,5.812 10.986,3.066 14.510,3.066 C16.966,3.066 18.883,4.591 18.218,7.261 C17.562,9.893 15.010,11.075 14.833,11.151 Z" class="cls-1"/>
</svg>
