<?xml version="1.0" encoding="utf-8"?>
<!-- Generator: Adobe Illustrator 16.0.3, SVG Export Plug-In . SVG Version: 6.00 Build 0)  -->
<!DOCTYPE svg PUBLIC "-//W3C//DTD SVG 1.1//EN" "http://www.w3.org/Graphics/SVG/1.1/DTD/svg11.dtd">
<svg version="1.1" id="Шар_1" xmlns="http://www.w3.org/2000/svg" xmlns:xlink="http://www.w3.org/1999/xlink" x="0px" y="0px"
	 width="12px" height="12px" viewBox="0 0 12 12" enable-background="new 0 0 12 12" xml:space="preserve">
<g>
	<g>
		<g>
			<path fill="#888888" d="M6.021,6.236c-0.78,0-1.414-0.807-1.414-1.802c0-0.993,0.634-1.802,1.414-1.802
				c0.782,0,1.417,0.809,1.417,1.802C7.438,5.429,6.802,6.236,6.021,6.236z M6.021,3.061c-0.543,0-0.986,0.617-0.986,1.375
				c0,0.759,0.442,1.374,0.986,1.374c0.546,0,0.987-0.616,0.987-1.375C7.008,3.676,6.566,3.061,6.021,3.061z"/>
		</g>
		<g>
			<path fill="none" d="M6.021,6.316c-1.525,0-2.815,0.715-2.815,1.561c0,0.064,0.01,0.129,0.024,0.192h5.583
				c0.015-0.063,0.023-0.126,0.023-0.192C8.836,7.031,7.547,6.316,6.021,6.316z"/>
		</g>
		<g>
			<path fill="none" d="M6.021,9.441c1.109,0,2.088-0.378,2.545-0.909H3.477C3.933,9.062,4.913,9.441,6.021,9.441z"/>
		</g>
		<g>
			<path fill="#888888" d="M3.206,7.877c0-0.846,1.29-1.561,2.815-1.561c1.526,0,2.816,0.715,2.816,1.561
				c0,0.064-0.01,0.129-0.024,0.192h0.438c0.007-0.063,0.015-0.126,0.015-0.192c0-1.115-1.423-1.989-3.243-1.989
				c-1.818,0-3.242,0.874-3.242,1.989c0,0.064,0.005,0.129,0.015,0.192h0.437C3.214,8.006,3.206,7.941,3.206,7.877z"/>
		</g>
		<g>
			<path fill="#888888" d="M3.477,8.532h5.089c0.124-0.146,0.208-0.301,0.247-0.463H3.23C3.267,8.231,3.352,8.387,3.477,8.532z"/>
		</g>
		<g>
			<path fill="#888888" d="M3.23,8.069H2.793c0.024,0.162,0.08,0.316,0.162,0.463h0.521C3.352,8.387,3.267,8.231,3.23,8.069z"/>
		</g>
		<g>
			<path fill="#888888" d="M8.813,8.069C8.773,8.231,8.689,8.387,8.565,8.532h0.522C9.17,8.386,9.223,8.229,9.249,8.069H8.813z"/>
		</g>
	</g>
	<g>
		<path fill="#888888" d="M6.021,12.042c-3.317,0-6.018-2.693-6.018-6.005c0-3.311,2.7-6.003,6.018-6.003
			c3.32,0,6.02,2.694,6.02,6.003C12.04,9.349,9.34,12.042,6.021,12.042z M6.021,0.639c-2.982,0-5.409,2.421-5.409,5.397
			c0,2.976,2.426,5.397,5.409,5.397c2.983,0,5.41-2.421,5.41-5.397C11.43,3.061,9.004,0.639,6.021,0.639z"/>
	</g>
</g>
</svg>
