<?xml version="1.0" encoding="utf-8"?>
<!-- Generator: Adobe Illustrator 16.0.3, SVG Export Plug-In . SVG Version: 6.00 Build 0)  -->
<!DOCTYPE svg PUBLIC "-//W3C//DTD SVG 1.1//EN" "http://www.w3.org/Graphics/SVG/1.1/DTD/svg11.dtd">
<svg version="1.1" id="Шар_1" xmlns="http://www.w3.org/2000/svg" xmlns:xlink="http://www.w3.org/1999/xlink" x="0px" y="0px"
	 width="12px" height="12px" viewBox="0 0 12 12" enable-background="new 0 0 12 12" xml:space="preserve">
<path fill="#0277BD" d="M10.104,2.708c0.043-0.044,0.064-0.1,0.064-0.166V2.08c0-0.068-0.02-0.124-0.064-0.167
	c-0.043-0.042-0.1-0.064-0.167-0.064h-2.23L7.201,0.641C7.129,0.464,6.996,0.313,6.811,0.188C6.622,0.062,6.432,0,6.239,0H3.929
	C3.735,0,3.545,0.063,3.357,0.188C3.17,0.313,3.041,0.464,2.968,0.641L2.463,1.849H0.231c-0.067,0-0.123,0.021-0.166,0.064
	C0.021,1.957,0,2.012,0,2.08v0.462c0,0.067,0.02,0.123,0.064,0.166c0.034,0.033,0.082,0.043,0.129,0.05h9.779
	C10.021,2.751,10.07,2.741,10.104,2.708z M3.466,1.849l0.353-0.845c0.034-0.042,0.075-0.07,0.124-0.08h2.29
	c0.048,0.01,0.088,0.037,0.123,0.08l0.346,0.845H3.466z"/>
<path fill="#0277BD" d="M3.251,4.498H2.766c-0.134,0-0.243,0.112-0.243,0.251v4.507c0,0.139,0.109,0.25,0.243,0.25h0.485
	c0.134,0,0.243-0.111,0.243-0.25V4.749C3.495,4.61,3.386,4.498,3.251,4.498z"/>
<path fill="#0277BD" d="M5.257,4.498H4.771c-0.134,0-0.243,0.112-0.243,0.251v4.507c0,0.139,0.109,0.25,0.243,0.25h0.486
	c0.134,0,0.243-0.111,0.243-0.25V4.749C5.5,4.61,5.391,4.498,5.257,4.498z"/>
<path fill="#0277BD" d="M7.234,4.498H6.726c-0.142,0-0.255,0.112-0.255,0.251v4.507c0,0.139,0.113,0.25,0.255,0.25h0.509
	c0.142,0,0.255-0.111,0.255-0.25V4.749C7.489,4.61,7.376,4.498,7.234,4.498z"/>
<path fill="#0277BD" d="M1.849,11.774c0,0.127-0.104,0.228-0.231,0.228H1.155c-0.127,0-0.231-0.101-0.231-0.228V2.234
	c0-0.125,0.104-0.227,0.231-0.227h0.462c0.127,0,0.231,0.102,0.231,0.227V11.774z"/>
<path fill="#0277BD" d="M9.244,11.774c0,0.127-0.104,0.228-0.231,0.228H8.551c-0.128,0-0.23-0.101-0.23-0.228V2.206
	c0-0.125,0.103-0.228,0.23-0.228h0.462c0.128,0,0.231,0.102,0.231,0.228V11.774z"/>
<path fill="#0277BD" d="M9.244,11.771c0,0.128-0.104,0.23-0.231,0.23H1.155c-0.127,0-0.231-0.103-0.231-0.23v-0.463
	c0-0.128,0.104-0.23,0.231-0.23h7.857c0.128,0,0.231,0.103,0.231,0.23V11.771z"/>
</svg>
