<?xml version="1.0" encoding="utf-8"?>
<!-- Generator: Adobe Illustrator 16.0.3, SVG Export Plug-In . SVG Version: 6.00 Build 0)  -->
<!DOCTYPE svg PUBLIC "-//W3C//DTD SVG 1.1//EN" "http://www.w3.org/Graphics/SVG/1.1/DTD/svg11.dtd">
<svg version="1.1" id="Шар_1" xmlns="http://www.w3.org/2000/svg" xmlns:xlink="http://www.w3.org/1999/xlink" x="0px" y="0px"
	 width="12px" height="12px" viewBox="-0.5 0.531 12 12" enable-background="new -0.5 0.531 12 12" xml:space="preserve">
<rect x="1.531" y="1.484" fill="#0277BD" width="9.969" height="1"/>
<g>
	<polygon fill="#0277BD" points="5.162,9.788 5.827,10.346 9.063,7.637 9.729,7.079 9.063,6.521 5.827,3.81 5.162,4.369 
		7.725,6.516 0.5,6.516 0.5,7.5 7.894,7.5 	"/>
	<polygon fill="#0277BD" points="10.683,1.609 2.28,1.609 1.577,1.609 1.544,1.609 1.544,2.337 1.542,2.337 1.542,2.344 
		1.531,2.344 1.531,3.531 2.484,3.531 2.484,2.36 10.683,2.36 10.683,11.531 2.5,11.531 2.5,10.484 1.531,10.484 1.531,10.5 
		1.531,11.531 1.531,12.531 1.577,12.531 2.269,12.531 2.5,12.531 10.683,12.531 11.5,12.531 11.5,11.78 11.5,11.531 11.5,2.36 
		11.5,1.609 	"/>
</g>
</svg>
