<?xml version="1.0" encoding="utf-8"?>
<!-- Generated by IcoMoon.io -->
<!DOCTYPE svg PUBLIC "-//W3C//DTD SVG 1.1//EN" "http://www.w3.org/Graphics/SVG/1.1/DTD/svg11.dtd">
<svg version="1.1" xmlns="http://www.w3.org/2000/svg" xmlns:xlink="http://www.w3.org/1999/xlink" width="9" height="16" viewBox="0 0 9 16">
<path fill="#444" d="M0 14.839l0.152-0.759q0.054-0.018 0.728-0.192t0.996-0.335q0.25-0.313 0.366-0.902 0.009-0.063 0.554-2.58t1.018-4.853 0.464-2.647v-0.223q-0.214-0.116-0.487-0.165t-0.621-0.071-0.518-0.049l0.17-0.92q0.295 0.018 1.071 0.058t1.335 0.063 1.076 0.022q0.429 0 0.879-0.022t1.080-0.063 0.879-0.058q-0.045 0.348-0.17 0.795-0.268 0.089-0.906 0.254t-0.969 0.299q-0.071 0.17-0.125 0.379t-0.080 0.357-0.067 0.406-0.058 0.375q-0.241 1.321-0.781 3.746t-0.692 3.174q-0.018 0.080-0.116 0.518t-0.179 0.804-0.143 0.746-0.054 0.513l0.009 0.161q0.152 0.036 1.652 0.277-0.027 0.393-0.143 0.884-0.098 0-0.29 0.013t-0.29 0.013q-0.259 0-0.777-0.089t-0.768-0.089q-1.232-0.018-1.839-0.018-0.455 0-1.277 0.080t-1.080 0.098z"></path>
</svg>
