<?xml version="1.0" encoding="utf-8"?>
<!-- Generated by IcoMoon.io -->
<!DOCTYPE svg PUBLIC "-//W3C//DTD SVG 1.1//EN" "http://www.w3.org/Graphics/SVG/1.1/DTD/svg11.dtd">
<svg version="1.1" xmlns="http://www.w3.org/2000/svg" xmlns:xlink="http://www.w3.org/1999/xlink" width="16" height="16" viewBox="0 0 16 16">
<path fill="#444" d="M3.429 12.571q0 0.714-0.5 1.214t-1.214 0.5-1.214-0.5-0.5-1.214 0.5-1.214 1.214-0.5 1.214 0.5 0.5 1.214zM3.429 8q0 0.714-0.5 1.214t-1.214 0.5-1.214-0.5-0.5-1.214 0.5-1.214 1.214-0.5 1.214 0.5 0.5 1.214zM16 11.714v1.714q0 0.116-0.085 0.201t-0.201 0.085h-10.857q-0.116 0-0.201-0.085t-0.085-0.201v-1.714q0-0.116 0.085-0.201t0.201-0.085h10.857q0.116 0 0.201 0.085t0.085 0.201zM3.429 3.429q0 0.714-0.5 1.214t-1.214 0.5-1.214-0.5-0.5-1.214 0.5-1.214 1.214-0.5 1.214 0.5 0.5 1.214zM16 7.143v1.714q0 0.116-0.085 0.201t-0.201 0.085h-10.857q-0.116 0-0.201-0.085t-0.085-0.201v-1.714q0-0.116 0.085-0.201t0.201-0.085h10.857q0.116 0 0.201 0.085t0.085 0.201zM16 2.571v1.714q0 0.116-0.085 0.201t-0.201 0.085h-10.857q-0.116 0-0.201-0.085t-0.085-0.201v-1.714q0-0.116 0.085-0.201t0.201-0.085h10.857q0.116 0 0.201 0.085t0.085 0.201z"></path>
</svg>
