<?xml version="1.0" encoding="utf-8"?>
<!-- Generated by IcoMoon.io -->
<!DOCTYPE svg PUBLIC "-//W3C//DTD SVG 1.1//EN" "http://www.w3.org/Graphics/SVG/1.1/DTD/svg11.dtd">
<svg version="1.1" xmlns="http://www.w3.org/2000/svg" xmlns:xlink="http://www.w3.org/1999/xlink" width="16" height="16" viewBox="0 0 16 16">
<path fill="#444" d="M3.402 14.464q0 0.714-0.487 1.125t-1.21 0.411q-0.946 0-1.536-0.589l0.509-0.786q0.438 0.402 0.946 0.402 0.259 0 0.451-0.129t0.192-0.379q0-0.571-0.938-0.5l-0.232-0.5q0.071-0.089 0.29-0.388t0.379-0.482 0.33-0.344v-0.009q-0.143 0-0.433 0.009t-0.433 0.009v0.473h-0.946v-1.357h2.973v0.786l-0.848 1.027q0.455 0.107 0.723 0.438t0.268 0.786zM3.42 8.866v1.42h-3.232q-0.054-0.321-0.054-0.482 0-0.455 0.21-0.83t0.504-0.607 0.589-0.424 0.504-0.388 0.21-0.402q0-0.223-0.129-0.344t-0.353-0.121q-0.411 0-0.723 0.518l-0.759-0.527q0.214-0.455 0.638-0.71t0.942-0.254q0.652 0 1.098 0.371t0.446 1.004q0 0.446-0.304 0.817t-0.67 0.576-0.674 0.451-0.317 0.469h1.134v-0.536h0.938zM16 11.714v1.714q0 0.116-0.085 0.201t-0.201 0.085h-10.857q-0.116 0-0.201-0.085t-0.085-0.201v-1.714q0-0.125 0.080-0.205t0.205-0.080h10.857q0.116 0 0.201 0.085t0.085 0.201zM3.429 3.688v0.884h-2.991v-0.884h0.955q0-0.366 0.004-1.089t0.004-1.080v-0.107h-0.018q-0.071 0.152-0.446 0.482l-0.634-0.679 1.214-1.134h0.946v3.607h0.964zM16 7.143v1.714q0 0.116-0.085 0.201t-0.201 0.085h-10.857q-0.116 0-0.201-0.085t-0.085-0.201v-1.714q0-0.125 0.080-0.205t0.205-0.080h10.857q0.116 0 0.201 0.085t0.085 0.201zM16 2.571v1.714q0 0.116-0.085 0.201t-0.201 0.085h-10.857q-0.116 0-0.201-0.085t-0.085-0.201v-1.714q0-0.116 0.085-0.201t0.201-0.085h10.857q0.116 0 0.201 0.085t0.085 0.201z"></path>
</svg>
