<?xml version="1.0" encoding="utf-8"?>
<!-- Generated by IcoMoon.io -->
<!DOCTYPE svg PUBLIC "-//W3C//DTD SVG 1.1//EN" "http://www.w3.org/Graphics/SVG/1.1/DTD/svg11.dtd">
<svg version="1.1" xmlns="http://www.w3.org/2000/svg" xmlns:xlink="http://www.w3.org/1999/xlink" width="14" height="14" viewBox="0 0 14 14">
<path fill="#4990E2" d="M12.281 10.827l-2.645-2.645c0.399-0.654 0.629-1.425 0.629-2.247 0-2.392-2.073-4.464-4.465-4.464s-4.33 1.938-4.33 4.33c0 2.391 2.073 4.464 4.464 4.464 0.796 0 1.54-0.216 2.181-0.591l2.659 2.661c0.26 0.26 0.682 0.26 0.942 0l0.66-0.66c0.26-0.26 0.165-0.588-0.095-0.848zM2.803 5.801c0-1.656 1.342-2.998 2.997-2.998s3.132 1.475 3.132 3.132c0 1.655-1.343 2.998-2.998 2.998s-3.131-1.476-3.131-3.132z"></path>
</svg>
