<?xml version="1.0" encoding="utf-8"?>
<!-- Generator: Adobe Illustrator 16.0.3, SVG Export Plug-In . SVG Version: 6.00 Build 0)  -->
<!DOCTYPE svg PUBLIC "-//W3C//DTD SVG 1.1//EN" "http://www.w3.org/Graphics/SVG/1.1/DTD/svg11.dtd">
<svg version="1.1" id="Шар_1" xmlns="http://www.w3.org/2000/svg" xmlns:xlink="http://www.w3.org/1999/xlink" x="0px" y="0px"
	 width="12px" height="12px" viewBox="0 0 12 12" enable-background="new 0 0 12 12" xml:space="preserve">
<path fill="#0277BD" d="M0.858,5.894c0-2.057,1.274-3.653,2.562-4.556v3.297h0.858V0.001h-0.08H3.419H0v0.927h2.482
	C1.175,2.013,0,3.726,0,5.894c0,3.403,2.561,5.227,5.993,5.227v-0.927C3.419,10.193,0.858,9.408,0.858,5.894z"/>
<path fill="#0277BD" d="M11.142,5.228c0,2.057-1.273,3.651-2.561,4.557V6.488H7.723v4.632h0.081h0.777H12v-0.927H9.518
	C10.825,9.107,12,7.396,12,5.228C12,1.823,9.439,0,6.007,0v0.927C8.581,0.928,11.142,1.712,11.142,5.228z"/>
</svg>
