<?xml version="1.0" encoding="utf-8"?>
<!-- Generated by IcoMoon.io -->
<!DOCTYPE svg PUBLIC "-//W3C//DTD SVG 1.1//EN" "http://www.w3.org/Graphics/SVG/1.1/DTD/svg11.dtd">
<svg version="1.1" xmlns="http://www.w3.org/2000/svg" xmlns:xlink="http://www.w3.org/1999/xlink" width="14" height="14" viewBox="0 0 14 14">
<path fill="#4990E2" d="M13.364 6.682l-4.455-1.909 1.781-1.272c-0.928-0.977-2.236-1.592-3.69-1.592-2.466 0-4.521 1.753-4.99 4.080l-1.188-0.492c0.676-2.788 3.182-4.861 6.178-4.861 1.882 0 3.566 0.822 4.732 2.12l1.632-1.166v5.091zM3.31 10.499c0.927 0.977 2.236 1.592 3.69 1.592 2.475 0 4.536-1.767 4.994-4.108l1.187 0.508c-0.672 2.794-3.181 4.873-6.181 4.873-1.882 0-3.567-0.822-4.732-2.12l-1.632 1.166v-5.091l4.455 1.909-1.781 1.272z"></path>
</svg>
