<?xml version="1.0" encoding="utf-8"?>
<!-- Generated by IcoMoon.io -->
<!DOCTYPE svg PUBLIC "-//W3C//DTD SVG 1.1//EN" "http://www.w3.org/Graphics/SVG/1.1/DTD/svg11.dtd">
<svg version="1.1" xmlns="http://www.w3.org/2000/svg" xmlns:xlink="http://www.w3.org/1999/xlink" width="16" height="16" viewBox="0 0 16 16">
<path fill="#444" d="M15.714 8q0.125 0 0.205 0.080t0.080 0.205v0.571q0 0.125-0.080 0.205t-0.205 0.080h-15.429q-0.125 0-0.205-0.080t-0.080-0.205v-0.571q0-0.125 0.080-0.205t0.205-0.080h15.429zM4.313 7.429q-0.25-0.313-0.455-0.714-0.429-0.866-0.429-1.679 0-1.616 1.196-2.759 1.188-1.134 3.509-1.134 0.446 0 1.491 0.17 0.589 0.107 1.58 0.429 0.089 0.339 0.188 1.054 0.125 1.098 0.125 1.634 0 0.161-0.045 0.402l-0.107 0.027-0.75-0.054-0.125-0.018q-0.446-1.33-0.92-1.83-0.786-0.813-1.875-0.813-1.018 0-1.625 0.527-0.598 0.518-0.598 1.304 0 0.652 0.589 1.25t2.491 1.152q0.616 0.179 1.545 0.589 0.518 0.25 0.848 0.464h-6.634zM8.839 9.714h3.67q0.063 0.348 0.063 0.821 0 0.991-0.366 1.893-0.205 0.491-0.634 0.929-0.33 0.313-0.973 0.723-0.714 0.429-1.366 0.589-0.714 0.188-1.813 0.188-1.018 0-1.741-0.205l-1.25-0.357q-0.509-0.143-0.643-0.25-0.071-0.071-0.071-0.196v-0.116q0-0.964-0.018-1.393-0.009-0.268 0-0.607l0.018-0.33v-0.393l0.911-0.018q0.134 0.304 0.268 0.634t0.201 0.5 0.112 0.241q0.313 0.509 0.714 0.839 0.384 0.321 0.938 0.509 0.527 0.196 1.179 0.196 0.571 0 1.241-0.241 0.688-0.232 1.089-0.768 0.42-0.545 0.42-1.152 0-0.75-0.723-1.402-0.304-0.259-1.223-0.634z"></path>
</svg>
